<svg width="16" height="16" viewBox="0 0 16 16" fill="none" xmlns="http://www.w3.org/2000/svg">
<g clip-path="url(#clip0_339_16218)">
<path d="M10.386 9.836C10.1264 9.42504 9.9923 8.94733 10 8.46133C10.0077 7.97532 10.1569 7.5021 10.4294 7.09959C10.7019 6.69707 11.0858 6.38271 11.5341 6.19497C11.9825 6.00724 12.4758 5.95428 12.9538 6.04257C13.4318 6.13086 13.8737 6.35657 14.2254 6.69208C14.5771 7.02759 14.8233 7.45835 14.934 7.93165C15.0447 8.40494 15.015 8.90024 14.8486 9.35693C14.6822 9.81361 14.3862 10.2119 13.997 10.503C15.212 11.173 16 12.46 16 14V15.5C16 15.6326 15.9473 15.7598 15.8536 15.8536C15.7598 15.9473 15.6326 16 15.5 16C15.3674 16 15.2402 15.9473 15.1464 15.8536C15.0527 15.7598 15 15.6326 15 15.5V14C15 12.276 13.724 11 12 11C11.09 11 10.702 10.98 10.195 10.878C8.945 10.624 7.862 9.878 6.61 8.312C6.5653 8.26123 6.53136 8.20191 6.51025 8.13765C6.48913 8.07338 6.48128 8.0055 6.48716 7.93811C6.49305 7.87072 6.51254 7.80522 6.54447 7.74559C6.5764 7.68595 6.6201 7.63341 6.67292 7.59115C6.72575 7.54889 6.78659 7.51779 6.85178 7.49973C6.91698 7.48168 6.98515 7.47703 7.05219 7.48609C7.11923 7.49514 7.18373 7.5177 7.2418 7.55241C7.29986 7.58712 7.35028 7.63324 7.39 7.688C8.29 8.812 9.043 9.428 9.824 9.731C9.979 9.783 10.169 9.814 10.386 9.836ZM12.171 9.964C12.2543 9.974 12.338 9.98533 12.422 9.998L12.5 10C12.8834 9.99915 13.252 9.85149 13.5299 9.58736C13.8079 9.32324 13.9742 8.96269 13.9945 8.5798C14.0149 8.19691 13.8879 7.82074 13.6396 7.52857C13.3913 7.23641 13.0405 7.05043 12.6593 7.00885C12.2782 6.96727 11.8955 7.07324 11.5901 7.30499C11.2846 7.53674 11.0795 7.87667 11.0168 8.25496C10.9542 8.63324 11.0388 9.02115 11.2533 9.339C11.4677 9.65685 11.7968 9.88049 12.171 9.964ZM9.78 11.97C9.91261 11.97 10.0398 12.0227 10.1336 12.1164C10.2273 12.2102 10.28 12.3374 10.28 12.47C10.2725 12.5487 10.2557 12.6262 10.23 12.701C10.051 13.081 10 13.475 10 14.003V15.503C10 15.6356 9.94732 15.7628 9.85355 15.8566C9.75979 15.9503 9.63261 16.003 9.5 16.003C9.36739 16.003 9.24021 15.9503 9.14645 15.8566C9.05268 15.7628 9 15.6356 9 15.503V14.003C9 13.346 9.072 12.817 9.307 12.307C9.34094 12.2086 9.40476 12.1232 9.48955 12.0628C9.57435 12.0024 9.67589 11.9699 9.78 11.97ZM5.958 5.772C6.03603 5.87586 6.07056 6.00601 6.05431 6.1349C6.03805 6.26378 5.97226 6.38128 5.87089 6.46251C5.76951 6.54374 5.6405 6.58232 5.51118 6.5701C5.38185 6.55787 5.26236 6.49579 5.178 6.397L3.11 3.812C3.0653 3.76123 3.03136 3.70191 3.01025 3.63765C2.98913 3.57338 2.98128 3.5055 2.98716 3.43811C2.99305 3.37072 3.01254 3.30522 3.04447 3.24559C3.0764 3.18595 3.1201 3.13341 3.17292 3.09115C3.22575 3.04889 3.28659 3.01779 3.35178 2.99973C3.41698 2.98168 3.48515 2.97703 3.55219 2.98609C3.61923 2.99514 3.68373 3.0177 3.7418 3.05241C3.79986 3.08712 3.85028 3.13324 3.89 3.188L5.958 5.772ZM1 11H6.5C6.63261 11 6.75979 11.0527 6.85355 11.1464C6.94732 11.2402 7 11.3674 7 11.5C7 11.6326 6.94732 11.7598 6.85355 11.8536C6.75979 11.9473 6.63261 12 6.5 12H0.5C0.367392 12 0.240215 11.9473 0.146447 11.8536C0.0526784 11.7598 0 11.6326 0 11.5V0.5C0 0.367392 0.0526784 0.240215 0.146447 0.146447C0.240215 0.0526784 0.367392 0 0.5 0L12.5 0C12.6326 0 12.7598 0.0526784 12.8536 0.146447C12.9473 0.240215 13 0.367392 13 0.5V3.5C13 3.63261 12.9473 3.75979 12.8536 3.85355C12.7598 3.94732 12.6326 4 12.5 4C12.3674 4 12.2402 3.94732 12.1464 3.85355C12.0527 3.75979 12 3.63261 12 3.5V1H1V11Z" fill="black"/>
</g>
<defs>
<clipPath id="clip0_339_16218">
<rect width="16" height="16" fill="white"/>
</clipPath>
</defs>
</svg>
