<svg width="24" height="24" viewBox="0 0 24 24" fill="none" xmlns="http://www.w3.org/2000/svg">
<path d="M2.5957 16.97C2.5957 16.5053 2.7157 16.106 2.9557 15.772C3.19637 15.4387 3.5197 15.172 3.9257 14.972C4.79304 14.5587 5.65437 14.2293 6.5097 13.984C7.36437 13.738 8.39304 13.615 9.5957 13.615C10.7984 13.615 11.8274 13.738 12.6827 13.984C13.538 14.23 14.3994 14.559 15.2667 14.971C15.672 15.171 15.995 15.438 16.2357 15.772C16.4757 16.106 16.5957 16.505 16.5957 16.969V17.577C16.5957 17.8317 16.496 18.0683 16.2967 18.287C16.0974 18.5057 15.8507 18.615 15.5567 18.615H3.6357C3.34237 18.615 3.0957 18.5153 2.8957 18.316C2.69637 18.1167 2.5967 17.8703 2.5967 17.577L2.5957 16.97ZM20.3657 18.616H18.3727C18.4407 18.4567 18.495 18.2887 18.5357 18.112C18.5757 17.936 18.5957 17.7577 18.5957 17.577V16.923C18.5957 16.343 18.4784 15.796 18.2437 15.282C18.0097 14.7673 17.677 14.326 17.2457 13.958C17.737 14.058 18.2104 14.1967 18.6657 14.374C19.121 14.5513 19.571 14.751 20.0157 14.973C20.449 15.191 20.7887 15.47 21.0347 15.81C21.2807 16.15 21.4037 16.521 21.4037 16.923V17.577C21.4037 17.8703 21.3037 18.117 21.1037 18.317C20.905 18.5157 20.659 18.616 20.3657 18.616ZM9.5957 11.385C8.77104 11.385 8.06504 11.091 7.4777 10.503C6.89037 9.915 6.59637 9.209 6.5957 8.385C6.59504 7.561 6.88904 6.85434 7.4777 6.265C8.06637 5.67567 8.77237 5.38234 9.5957 5.385C10.419 5.38767 11.1254 5.681 11.7147 6.265C12.304 6.849 12.5977 7.55567 12.5957 8.385C12.5937 9.21434 12.3 9.92034 11.7147 10.503C11.1294 11.0857 10.423 11.3797 9.5957 11.385ZM16.8657 8.385C16.8657 9.20967 16.5717 9.91567 15.9837 10.503C15.3957 11.0903 14.6897 11.3843 13.8657 11.385C13.823 11.385 13.769 11.38 13.7037 11.37C13.6384 11.36 13.5844 11.3497 13.5417 11.339C13.881 10.9237 14.1414 10.463 14.3227 9.957C14.5047 9.45167 14.5957 8.92667 14.5957 8.382C14.5957 7.83734 14.5007 7.31734 14.3107 6.822C14.12 6.32534 13.8637 5.86167 13.5417 5.431C13.5957 5.41167 13.6497 5.399 13.7037 5.393C13.7577 5.387 13.8117 5.384 13.8657 5.384C14.6904 5.384 15.3964 5.678 15.9837 6.266C16.571 6.854 16.865 7.56 16.8657 8.384M3.5957 17.616H15.5957V16.969C15.5957 16.7343 15.537 16.5293 15.4197 16.354C15.3024 16.1787 15.0917 16.0107 14.7877 15.85C14.0417 15.4513 13.255 15.146 12.4277 14.934C11.6004 14.722 10.6564 14.616 9.5957 14.616C8.53504 14.616 7.5907 14.722 6.7627 14.934C5.93604 15.146 5.14937 15.4513 4.4027 15.85C4.09937 16.01 3.88904 16.178 3.7717 16.354C3.65437 16.5293 3.5957 16.7343 3.5957 16.969V17.616ZM9.5957 10.385C10.1457 10.385 10.6167 10.189 11.0087 9.797C11.4007 9.405 11.5964 8.934 11.5957 8.384C11.595 7.834 11.3994 7.36334 11.0087 6.972C10.618 6.58067 10.147 6.38467 9.5957 6.384C9.04437 6.38334 8.5737 6.57934 8.1837 6.972C7.7937 7.36467 7.5977 7.83534 7.5957 8.384C7.5937 8.93267 7.7897 9.40367 8.1837 9.797C8.5777 10.1903 9.04837 10.386 9.5957 10.384" fill="black"/>
</svg>
