<svg width="25" height="22" viewBox="0 0 25 22" fill="none" xmlns="http://www.w3.org/2000/svg">
<path d="M1 4.75C1 3.75544 1.39509 2.80161 2.09835 2.09835C2.80161 1.39509 3.75544 1 4.75 1H19.75C20.7446 1 21.6984 1.39509 22.4017 2.09835C23.1049 2.80161 23.5 3.75544 23.5 4.75V17.25C23.5 18.2446 23.1049 19.1984 22.4017 19.9017C21.6984 20.6049 20.7446 21 19.75 21H4.75C3.75544 21 2.80161 20.6049 2.09835 19.9017C1.39509 19.1984 1 18.2446 1 17.25V4.75Z" stroke="#4B4B4B" stroke-width="2" stroke-linecap="round" stroke-linejoin="round"/>
<path d="M16 6H18.5M16 11H18.5M6 16H18.5M6 8.5C6 9.16304 6.26339 9.79893 6.73223 10.2678C7.20107 10.7366 7.83696 11 8.5 11C9.16304 11 9.79893 10.7366 10.2678 10.2678C10.7366 9.79893 11 9.16304 11 8.5C11 7.83696 10.7366 7.20107 10.2678 6.73223C9.79893 6.26339 9.16304 6 8.5 6C7.83696 6 7.20107 6.26339 6.73223 6.73223C6.26339 7.20107 6 7.83696 6 8.5Z" stroke="#4B4B4B" stroke-width="2" stroke-linecap="round" stroke-linejoin="round"/>
</svg>
