<svg width="30" height="30" viewBox="0 0 30 30" fill="none" xmlns="http://www.w3.org/2000/svg">
<path d="M23.0481 6.19216H20.6256V4.43216C20.6256 4.10466 20.3381 3.79216 20.0006 3.80716C19.8359 3.81036 19.6787 3.87724 19.5622 3.99376C19.4457 4.11028 19.3788 4.2674 19.3756 4.43216V6.19216H10.6256V4.43216C10.6256 4.10466 10.3381 3.79216 10.0006 3.80716C9.83587 3.81036 9.67875 3.87724 9.56222 3.99376C9.4457 4.11028 9.37882 4.2674 9.37562 4.43216V6.19216H6.95312C6.12463 6.19315 5.33035 6.52271 4.74451 7.10855C4.15868 7.69438 3.82912 8.48866 3.82812 9.31716V23.0672C3.82812 24.7909 5.23062 26.1922 6.95312 26.1922H23.0469C24.7706 26.1922 26.1719 24.7909 26.1719 23.0672V9.31716C26.1719 8.48857 25.8428 7.69391 25.257 7.10789C24.6712 6.52188 23.8767 6.19249 23.0481 6.19216ZM6.95312 7.44216H9.37562V8.18216C9.37562 8.50966 9.66312 8.82216 10.0006 8.80716C10.3394 8.79216 10.6256 8.53216 10.6256 8.18216V7.44216H19.3756V8.18216C19.3756 8.50966 19.6631 8.82216 20.0006 8.80716C20.3394 8.79216 20.6256 8.53216 20.6256 8.18216V7.44216H23.0469C24.0806 7.44216 24.9219 8.28341 24.9219 9.31716V11.2972H5.07812V9.31716C5.07812 8.28341 5.91937 7.44216 6.95312 7.44216ZM23.0481 24.9422H6.95312C5.91937 24.9422 5.07812 24.1009 5.07812 23.0672V12.5472H24.9219V23.0672C24.9219 23.5642 24.7245 24.0409 24.3731 24.3925C24.0218 24.7441 23.5452 24.9418 23.0481 24.9422Z" fill="#4B4B4B"/>
</svg>
