<svg width="50" height="50" viewBox="0 0 50 50" fill="none" xmlns="http://www.w3.org/2000/svg">
<path d="M47.375 45.7646H39.3125C39.2311 45.7682 39.1501 45.751 39.0771 45.7145C39.0042 45.6781 38.9418 45.6236 38.8958 45.5563C38.8611 45.4886 38.843 45.4136 38.843 45.3375C38.843 45.2615 38.8611 45.1865 38.8958 45.1188L41.6458 34.7021C41.7198 34.4178 41.7243 34.1199 41.659 33.8335C41.5938 33.5471 41.4606 33.2805 41.2708 33.0563C41.0727 32.8184 40.8241 32.6276 40.543 32.4979C40.2619 32.3682 39.9554 32.3027 39.6458 32.3063H9.875C9.56543 32.3027 9.25895 32.3682 8.97786 32.4979C8.69676 32.6276 8.44812 32.8184 8.25 33.0563C8.06021 33.2805 7.92707 33.5471 7.86181 33.8335C7.79655 34.1199 7.80107 34.4178 7.875 34.7021L10.625 45.1188C10.6597 45.1865 10.6778 45.2615 10.6778 45.3375C10.6778 45.4136 10.6597 45.4886 10.625 45.5563C10.5739 45.6337 10.5014 45.6945 10.4163 45.7315C10.3313 45.7685 10.2373 45.78 10.1458 45.7646H2.08333C1.5308 45.7646 1.0009 45.9841 0.610194 46.3748C0.219493 46.7655 0 47.2954 0 47.848C0 48.4005 0.219493 48.9304 0.610194 49.3211C1.0009 49.7118 1.5308 49.9313 2.08333 49.9313H47.375C47.9275 49.9313 48.4574 49.7118 48.8481 49.3211C49.2388 48.9304 49.4583 48.4005 49.4583 47.848C49.4583 47.2954 49.2388 46.7655 48.8481 46.3748C48.4574 45.9841 47.9275 45.7646 47.375 45.7646ZM24.7292 37.4313C25.241 37.4272 25.7425 37.5752 26.17 37.8565C26.5976 38.1378 26.9319 38.5398 27.1307 39.0115C27.3294 39.4832 27.3835 40.0032 27.2862 40.5057C27.1889 41.0082 26.9445 41.4705 26.5841 41.8338C26.2236 42.1972 25.7634 42.4453 25.2617 42.5467C24.76 42.6481 24.2395 42.5981 23.7663 42.4032C23.293 42.2083 22.8883 41.8773 22.6035 41.452C22.3187 41.0267 22.1667 40.5264 22.1667 40.0146C22.1639 39.6764 22.2282 39.3409 22.3557 39.0276C22.4833 38.7143 22.6716 38.4293 22.9098 38.1892C23.148 37.949 23.4314 37.7584 23.7437 37.6283C24.056 37.4982 24.3909 37.4313 24.7292 37.4313ZM12.8125 28.2021C12.8233 28.4711 12.9377 28.7255 13.1319 28.9119C13.3261 29.0983 13.585 29.2023 13.8542 29.2021H35.6042C35.8769 29.2022 36.1387 29.0953 36.3335 28.9044C36.5282 28.7136 36.6404 28.4539 36.6458 28.1813C36.6454 25.9519 36.0206 23.7672 34.8424 21.8747C33.6641 19.9821 31.9795 18.4573 29.9792 17.473C29.901 17.4297 29.8359 17.3663 29.7905 17.2894C29.7452 17.2125 29.7212 17.1248 29.7212 17.0355C29.7212 16.9461 29.7452 16.8585 29.7905 16.7815C29.8359 16.7046 29.901 16.6412 29.9792 16.598C31.5592 15.4738 32.7411 13.8765 33.354 12.0367C33.967 10.197 33.9793 8.21002 33.3892 6.36282C32.7991 4.51561 31.6372 2.90376 30.0712 1.76006C28.5052 0.616359 26.6162 0 24.6771 0C22.7379 0 20.8489 0.616359 19.283 1.76006C17.717 2.90376 16.555 4.51561 15.965 6.36282C15.3749 8.21002 15.3872 10.197 16.0002 12.0367C16.6131 13.8765 17.7949 15.4738 19.375 16.598C19.4484 16.654 19.5074 16.7266 19.5473 16.8099C19.5871 16.8932 19.6066 16.9848 19.6042 17.0771C19.5934 17.1651 19.5611 17.2492 19.5103 17.3218C19.4594 17.3945 19.3915 17.4535 19.3125 17.4938C17.3449 18.5032 15.6957 20.0383 14.5482 21.9288C13.4007 23.8192 12.7999 25.9907 12.8125 28.2021ZM24.7292 20.0771C25.138 20.0771 25.5302 20.2396 25.8193 20.5287C26.1084 20.8178 26.2708 21.2099 26.2708 21.6188V24.1605C26.2708 24.5693 26.1084 24.9615 25.8193 25.2506C25.5302 25.5397 25.138 25.7021 24.7292 25.7021C24.3203 25.7021 23.9282 25.5397 23.639 25.2506C23.3499 24.9615 23.1875 24.5693 23.1875 24.1605V21.6188C23.1875 21.2099 23.3499 20.8178 23.639 20.5287C23.9282 20.2396 24.3203 20.0771 24.7292 20.0771ZM19.8333 7.57713C19.8601 7.5023 19.9042 7.43492 19.9622 7.38057C20.0202 7.32623 20.0903 7.28648 20.1667 7.26463C20.2338 7.22816 20.309 7.20906 20.3854 7.20906C20.4618 7.20906 20.537 7.22816 20.6042 7.26463C22.4648 8.47564 24.6342 9.12646 26.8542 9.13963C27.645 9.13096 28.4333 9.04725 29.2083 8.88963C29.2406 8.87317 29.2763 8.86458 29.3125 8.86458C29.3487 8.86458 29.3844 8.87317 29.4167 8.88963C29.4474 8.91533 29.4725 8.9471 29.4904 8.98294C29.5084 9.01879 29.5187 9.05794 29.5208 9.09796C29.5241 9.82801 29.3681 10.55 29.0637 11.2136C28.7594 11.8771 28.314 12.4664 27.7586 12.9402C27.2031 13.414 26.5511 13.761 25.8478 13.9569C25.1446 14.1529 24.407 14.1932 23.6866 14.0749C22.9662 13.9566 22.2803 13.6827 21.6766 13.2721C21.0729 12.8616 20.566 12.3243 20.1912 11.6978C19.8165 11.0713 19.5829 10.3706 19.5066 9.64449C19.4304 8.91842 19.5135 8.18447 19.75 7.49379L19.8333 7.57713Z" fill="black"/>
</svg>
