<svg width="21" height="24" viewBox="0 0 21 24" fill="none" xmlns="http://www.w3.org/2000/svg">
<path d="M10.8247 23.025C10.6207 23.1715 10.3759 23.2503 10.1247 23.2503C9.87356 23.2503 9.62873 23.1715 9.42472 23.025C3.38848 18.7225 -3.01777 9.8725 3.45848 3.4775C5.2364 1.72856 7.63077 0.748905 10.1247 0.750001C12.6247 0.750001 15.0235 1.73125 16.791 3.47625C23.2672 9.87125 16.861 18.72 10.8247 23.025Z" stroke="#4B4B4B" stroke-width="1.5" stroke-linecap="round" stroke-linejoin="round"/>
<path d="M10.125 12C10.788 12 11.4239 11.7366 11.8928 11.2678C12.3616 10.7989 12.625 10.163 12.625 9.5C12.625 8.83696 12.3616 8.20107 11.8928 7.73223C11.4239 7.26339 10.788 7 10.125 7C9.46196 7 8.82607 7.26339 8.35723 7.73223C7.88839 8.20107 7.625 8.83696 7.625 9.5C7.625 10.163 7.88839 10.7989 8.35723 11.2678C8.82607 11.7366 9.46196 12 10.125 12Z" stroke="#4B4B4B" stroke-width="1.5" stroke-linecap="round" stroke-linejoin="round"/>
</svg>
