<svg width="18" height="23" viewBox="0 0 18 23" fill="none" xmlns="http://www.w3.org/2000/svg">
<path d="M2.02 22.5C1.46 22.5 0.983333 22.3033 0.59 21.91C0.196667 21.5167 0 21.0404 0 20.4813V9.51875C0 8.96042 0.196667 8.48417 0.59 8.09C0.983333 7.69667 1.46 7.5 2.02 7.5H3.75V5C3.75 3.6075 4.23542 2.42625 5.20625 1.45625C6.17625 0.485417 7.3575 0 8.75 0C10.1425 0 11.3242 0.485417 12.295 1.45625C13.2658 2.42708 13.7508 3.60833 13.75 5V7.5H15.4813C16.0396 7.5 16.5158 7.69667 16.91 8.09C17.3033 8.48333 17.5 8.96 17.5 9.52V20.4813C17.5 21.0396 17.3033 21.5158 16.91 21.91C16.5167 22.3033 16.0404 22.5 15.4813 22.5H2.02ZM2.02 21.25H15.4813C15.7054 21.25 15.8896 21.1779 16.0337 21.0337C16.1779 20.8896 16.25 20.7054 16.25 20.4813V9.51875C16.25 9.29458 16.1779 9.11042 16.0337 8.96625C15.8896 8.82208 15.7054 8.75 15.4813 8.75H2.01875C1.79458 8.75 1.61042 8.82208 1.46625 8.96625C1.32208 9.11042 1.25 9.295 1.25 9.52V20.4813C1.25 20.7054 1.32208 20.8896 1.46625 21.0337C1.61042 21.1779 1.795 21.25 2.02 21.25ZM8.75 16.875C9.2775 16.875 9.72167 16.6942 10.0825 16.3325C10.4442 15.9717 10.625 15.5275 10.625 15C10.625 14.4725 10.4442 14.0283 10.0825 13.6675C9.72083 13.3067 9.27667 13.1258 8.75 13.125C8.22333 13.1242 7.77917 13.305 7.4175 13.6675C7.05583 14.0283 6.875 14.4725 6.875 15C6.875 15.5275 7.05583 15.9717 7.4175 16.3325C7.77833 16.6942 8.2225 16.875 8.75 16.875ZM5 7.5H12.5V5C12.5 3.95833 12.1354 3.07292 11.4062 2.34375C10.6771 1.61458 9.79167 1.25 8.75 1.25C7.70833 1.25 6.82292 1.61458 6.09375 2.34375C5.36458 3.07292 5 3.95833 5 5V7.5Z" fill="#777777"/>
</svg>
