<svg width="30" height="30" viewBox="0 0 30 30" fill="none" xmlns="http://www.w3.org/2000/svg">
<path d="M11.25 22.5H18.75M12.5 26.25H17.5" stroke="#4B4B4B" stroke-width="1.6" stroke-linecap="round"/>
<path d="M15 2.5C10.8575 2.5 7.5 5.8575 7.5 10C7.5 12.6087 8.83 14.8963 10.885 16.25C11.6088 16.735 12 17.5988 12 18.5V19.375C12 20.41 12.84 21.25 13.875 21.25H16.125C17.16 21.25 18 20.41 18 19.375V18.5C18 17.5988 18.3912 16.735 19.115 16.25C21.17 14.8963 22.5 12.6087 22.5 10C22.5 5.8575 19.1425 2.5 15 2.5Z" stroke="#4B4B4B" stroke-width="1.6" stroke-linecap="round" stroke-linejoin="round"/>
<path d="M23.75 6.25V11.25M21.25 8.75H26.25" stroke="#4B4B4B" stroke-width="1.8" stroke-linecap="round"/>
</svg>
