<svg width="43" height="42" viewBox="0 0 43 42" fill="none" xmlns="http://www.w3.org/2000/svg">
<path d="M38.5417 31.25C39.6467 31.25 40.7065 30.811 41.4879 30.0296C42.2693 29.2482 42.7083 28.1884 42.7083 27.0833V4.16667C42.7083 3.0616 42.2693 2.00179 41.4879 1.22039C40.7065 0.438987 39.6467 0 38.5417 0H16.5833C17.3125 1.27083 17.7083 2.70833 17.7083 4.16667H38.5417V27.0833H19.7917V31.25M28.125 10.4167V14.5833H15.625V41.6667H11.4583V29.1667H7.29167V41.6667H3.125V25H0V14.5833C0 13.4783 0.438987 12.4185 1.22039 11.6371C2.00179 10.8557 3.0616 10.4167 4.16667 10.4167H28.125ZM13.5417 4.16667C13.5417 5.27174 13.1027 6.33154 12.3213 7.11295C11.5399 7.89435 10.4801 8.33333 9.375 8.33333C8.26993 8.33333 7.21012 7.89435 6.42872 7.11295C5.64732 6.33154 5.20833 5.27174 5.20833 4.16667C5.20833 3.0616 5.64732 2.00179 6.42872 1.22039C7.21012 0.438987 8.26993 0 9.375 0C10.4801 0 11.5399 0.438987 12.3213 1.22039C13.1027 2.00179 13.5417 3.0616 13.5417 4.16667Z" fill="black"/>
</svg>
