<svg width="28" height="28" viewBox="0 0 28 28" fill="none" xmlns="http://www.w3.org/2000/svg">
<path d="M13.1434 17.8028V7.91713L10.4806 10.58L9.67142 9.75941L13.7148 5.71484L17.7594 9.75941L16.9503 10.5811L14.2863 7.91713V17.8028H13.1434ZM7.5617 21.7148C7.03522 21.7148 6.59599 21.5388 6.24399 21.1868C5.89199 20.8348 5.71561 20.3952 5.71484 19.868V17.0988H6.8577V19.868C6.8577 20.044 6.93084 20.2055 7.07713 20.3526C7.22342 20.4996 7.38456 20.5727 7.56056 20.572H19.8691C20.0444 20.572 20.2055 20.4988 20.3526 20.3526C20.4996 20.2063 20.5727 20.0448 20.572 19.868V17.0988H21.7148V19.868C21.7148 20.3945 21.5388 20.8337 21.1868 21.1857C20.8348 21.5377 20.3952 21.7141 19.868 21.7148H7.5617Z" fill="black"/>
</svg>
