<svg width="9" height="16" viewBox="0 0 9 16" fill="none" xmlns="http://www.w3.org/2000/svg">
<path d="M3.91945 15.04V-5.72205e-06H5.23145V15.04H3.91945ZM4.41545 13.28C3.54079 13.28 2.70345 13.1573 1.90345 12.912C1.10345 12.656 0.468786 12.3307 -0.000546873 11.936L0.719453 10.32C1.16745 10.672 1.72212 10.9653 2.38345 11.2C3.04479 11.4347 3.72212 11.552 4.41545 11.552C5.00212 11.552 5.47679 11.488 5.83945 11.36C6.20212 11.232 6.46879 11.0613 6.63945 10.848C6.81012 10.624 6.89545 10.3733 6.89545 10.096C6.89545 9.75466 6.77279 9.48266 6.52745 9.27999C6.28212 9.06666 5.96212 8.90133 5.56745 8.78399C5.18345 8.65599 4.75145 8.53866 4.27145 8.43199C3.80212 8.32533 3.32745 8.20266 2.84745 8.06399C2.37812 7.91466 1.94612 7.72799 1.55145 7.50399C1.16745 7.26933 0.852787 6.95999 0.607453 6.57599C0.36212 6.19199 0.239453 5.70133 0.239453 5.10399C0.239453 4.49599 0.399453 3.94133 0.719453 3.43999C1.05012 2.92799 1.54612 2.52266 2.20745 2.22399C2.87945 1.91466 3.72745 1.75999 4.75145 1.75999C5.42345 1.75999 6.09012 1.84533 6.75145 2.016C7.41279 2.18666 7.98879 2.43199 8.47945 2.752L7.82345 4.36799C7.32212 4.06933 6.80479 3.85066 6.27145 3.712C5.73812 3.56266 5.22612 3.48799 4.73545 3.48799C4.15945 3.48799 3.69012 3.55733 3.32745 3.69599C2.97545 3.83466 2.71412 4.01599 2.54345 4.24C2.38345 4.46399 2.30345 4.71999 2.30345 5.00799C2.30345 5.34933 2.42079 5.62666 2.65545 5.83999C2.90079 6.04266 3.21545 6.20266 3.59945 6.31999C3.99412 6.43733 4.43145 6.55466 4.91145 6.67199C5.39145 6.77866 5.86612 6.90133 6.33545 7.03999C6.81545 7.17866 7.24745 7.35999 7.63145 7.58399C8.02612 7.80799 8.34079 8.11199 8.57545 8.496C8.82079 8.87999 8.94345 9.36533 8.94345 9.95199C8.94345 10.5493 8.77812 11.104 8.44745 11.616C8.12745 12.1173 7.63145 12.5227 6.95945 12.832C6.28745 13.1307 5.43945 13.28 4.41545 13.28Z" fill="black"/>
</svg>
