<svg width="20" height="20" viewBox="0 0 20 20" fill="none" xmlns="http://www.w3.org/2000/svg">
<path d="M16.666 10C16.666 11.7681 15.9636 13.4638 14.7134 14.7141C13.4632 15.9643 11.7675 16.6667 9.99935 16.6667C8.23124 16.6667 6.53555 15.9643 5.2853 14.7141C4.03506 13.4638 3.33268 11.7681 3.33268 10C3.33268 8.2319 4.03506 6.53621 5.2853 5.28596C6.53555 4.03572 8.23124 3.33334 9.99935 3.33334C10.6327 3.33334 11.2493 3.42501 11.8327 3.59168L13.141 2.28334C12.1447 1.87252 11.077 1.66293 9.99935 1.66668C8.905 1.66668 7.82137 1.88222 6.81032 2.30101C5.79927 2.7198 4.88061 3.33363 4.10679 4.10745C2.54399 5.67026 1.66602 7.78987 1.66602 10C1.66602 12.2101 2.54399 14.3298 4.10679 15.8926C4.88061 16.6664 5.79927 17.2802 6.81032 17.699C7.82137 18.1178 8.905 18.3333 9.99935 18.3333C12.2095 18.3333 14.3291 17.4554 15.8919 15.8926C17.4547 14.3298 18.3327 12.2101 18.3327 10M6.59102 8.40001L5.41602 9.58334L9.16602 13.3333L17.4993 5.00001L16.3243 3.81668L9.16602 10.975L6.59102 8.40001Z" fill="white"/>
</svg>
