<svg width="20" height="20" viewBox="0 0 20 20" fill="none" xmlns="http://www.w3.org/2000/svg">
<path d="M9.99935 3.33332C13.6752 3.33332 16.666 6.32416 16.666 9.99999C16.666 13.6758 13.6752 16.6667 9.99935 16.6667C6.32352 16.6667 3.33268 13.6758 3.33268 9.99999C3.33268 6.32416 6.32352 3.33332 9.99935 3.33332ZM9.99935 1.66666C5.39685 1.66666 1.66602 5.39749 1.66602 9.99999C1.66602 14.6025 5.39685 18.3333 9.99935 18.3333C14.6018 18.3333 18.3327 14.6025 18.3327 9.99999C18.3327 5.39749 14.6018 1.66666 9.99935 1.66666ZM14.166 9.16666H10.8327V5.83332H9.16602V9.16666H5.83268V10.8333H9.16602V14.1667H10.8327V10.8333H14.166V9.16666Z" fill="black"/>
</svg>
