<svg width="20" height="20" viewBox="0 0 20 20" fill="none" xmlns="http://www.w3.org/2000/svg">
<path d="M9.99925 1.66667C8.45215 1.66667 6.96842 2.28125 5.87446 3.37522C4.7805 4.46918 4.16592 5.95291 4.16592 7.5V10.44C4.16604 10.5693 4.13608 10.6968 4.07842 10.8125L2.64758 13.6733C2.57769 13.8131 2.54469 13.9684 2.55171 14.1245C2.55873 14.2806 2.60554 14.4324 2.6877 14.5653C2.76987 14.6982 2.88464 14.8079 3.02114 14.884C3.15763 14.9601 3.31132 15 3.46758 15H16.5309C16.6872 15 16.8409 14.9601 16.9774 14.884C17.1139 14.8079 17.2286 14.6982 17.3108 14.5653C17.393 14.4324 17.4398 14.2806 17.4468 14.1245C17.4538 13.9684 17.4208 13.8131 17.3509 13.6733L15.9209 10.8125C15.863 10.6969 15.8327 10.5693 15.8326 10.44V7.5C15.8326 5.95291 15.218 4.46918 14.124 3.37522C13.0301 2.28125 11.5463 1.66667 9.99925 1.66667ZM9.99925 17.5C9.48204 17.5003 8.97748 17.3401 8.5551 17.0416C8.13272 16.7431 7.81332 16.321 7.64092 15.8333H12.3576C12.1852 16.321 11.8658 16.7431 11.4434 17.0416C11.021 17.3401 10.5165 17.5003 9.99925 17.5Z" fill="black"/>
</svg>
