<svg width="20" height="20" viewBox="0 0 20 20" fill="none" xmlns="http://www.w3.org/2000/svg">
<path d="M7.94966 12.6917C6.61744 12.6917 5.48827 12.2289 4.56216 11.3033C3.63661 10.3783 3.17383 9.24944 3.17383 7.91666C3.17383 6.58389 3.63661 5.45472 4.56216 4.52916C5.48772 3.60361 6.61688 3.14111 7.94966 3.14166C9.28244 3.14222 10.4113 3.605 11.3363 4.53C12.2613 5.455 12.7241 6.58389 12.7247 7.91666C12.7247 8.49555 12.6222 9.05583 12.4172 9.5975C12.2122 10.1392 11.9427 10.6025 11.6088 10.9875L16.533 15.91C16.6108 15.9878 16.6524 16.0836 16.658 16.1975C16.663 16.3103 16.6213 16.4111 16.533 16.5C16.4441 16.5889 16.3458 16.6333 16.238 16.6333C16.1302 16.6333 16.0319 16.5889 15.943 16.5L11.0197 11.5767C10.603 11.9317 10.1238 12.2064 9.58216 12.4008C9.04049 12.5953 8.49605 12.6925 7.94883 12.6925M7.94883 11.8592C9.05438 11.8592 9.98799 11.4786 10.7497 10.7175C11.5108 9.95639 11.8913 9.02277 11.8913 7.91666C11.8913 6.81055 11.511 5.87722 10.7505 5.11666C9.98994 4.35611 9.05661 3.97555 7.95049 3.975C6.84438 3.975 5.91077 4.35555 5.14966 5.11666C4.38855 5.87777 4.00772 6.81111 4.00716 7.91666C4.00661 9.02222 4.38716 9.95555 5.14883 10.7167C5.91049 11.4778 6.84383 11.8583 7.94883 11.8583" fill="black"/>
</svg>
