<svg width="24" height="24" viewBox="0 0 24 24" fill="none" xmlns="http://www.w3.org/2000/svg">
<mask id="mask0_279_6097" style="mask-type:alpha" maskUnits="userSpaceOnUse" x="0" y="0" width="24" height="24">
<rect width="24" height="24" fill="#D9D9D9"/>
</mask>
<g mask="url(#mask0_279_6097)">
<path d="M5 12.0004C5 13.767 5.575 15.3087 6.725 16.6254C7.875 17.942 9.325 18.717 11.075 18.9504C11.3417 18.9837 11.5625 19.1004 11.7375 19.3004C11.9125 19.5004 12 19.7337 12 20.0004C12 20.2837 11.8792 20.5171 11.6375 20.7004C11.3958 20.8837 11.125 20.9587 10.825 20.9254C8.575 20.642 6.70833 19.6545 5.225 17.9629C3.74167 16.2712 3 14.2837 3 12.0004C3 9.73372 3.7375 7.75455 5.2125 6.06288C6.6875 4.37122 8.55 3.37538 10.8 3.07538C11.1167 3.04205 11.3958 3.11288 11.6375 3.28788C11.8792 3.46288 12 3.70038 12 4.00038C12 4.26705 11.9125 4.50038 11.7375 4.70038C11.5625 4.90038 11.3417 5.01705 11.075 5.05038C9.325 5.28372 7.875 6.05872 6.725 7.37538C5.575 8.69205 5 10.2337 5 12.0004ZM17.175 13.0004H10C9.71667 13.0004 9.47917 12.9045 9.2875 12.7129C9.09583 12.5212 9 12.2837 9 12.0004C9 11.717 9.09583 11.4795 9.2875 11.2879C9.47917 11.0962 9.71667 11.0004 10 11.0004H17.175L15.3 9.12538C15.1 8.92538 15 8.68788 15 8.41288C15 8.13788 15.1 7.90038 15.3 7.70038C15.5 7.50038 15.7333 7.40038 16 7.40038C16.2667 7.40038 16.5 7.50038 16.7 7.70038L20.3 11.3004C20.5 11.5004 20.6 11.7337 20.6 12.0004C20.6 12.267 20.5 12.5004 20.3 12.7004L16.7 16.3004C16.5 16.5004 16.2667 16.5962 16 16.5879C15.7333 16.5795 15.5 16.4754 15.3 16.2754C15.1 16.0754 15 15.842 15 15.5754C15 15.3087 15.1 15.0754 15.3 14.8754L17.175 13.0004Z" fill="#854C3A"/>
</g>
</svg>
