<svg width="16" height="16" viewBox="0 0 16 16" fill="none" xmlns="http://www.w3.org/2000/svg">
<path d="M9.536 3.22933L11.4373 5.13066M4.66667 4.66666H2.66667C2.48986 4.66666 2.32029 4.7369 2.19526 4.86193C2.07024 4.98695 2 5.15652 2 5.33333V12C2 12.1768 2.07024 12.3464 2.19526 12.4714C2.32029 12.5964 2.48986 12.6667 2.66667 12.6667H10C10.1768 12.6667 10.3464 12.5964 10.4714 12.4714C10.5964 12.3464 10.6667 12.1768 10.6667 12V9M12.2727 2.39333C12.3976 2.5182 12.4967 2.66646 12.5643 2.82963C12.6319 2.99281 12.6667 3.1677 12.6667 3.34433C12.6667 3.52096 12.6319 3.69585 12.5643 3.85903C12.4967 4.0222 12.3976 4.17046 12.2727 4.29533L7.71 8.858L5.33333 9.33333L5.80867 6.95666L10.3713 2.394C10.4961 2.26902 10.6443 2.16987 10.8074 2.10222C10.9705 2.03458 11.1454 1.99976 11.322 1.99976C11.4986 1.99976 11.6735 2.03458 11.8366 2.10222C11.9997 2.16987 12.1479 2.26902 12.2727 2.394V2.39333Z" stroke="black" stroke-width="2" stroke-linecap="round" stroke-linejoin="round"/>
</svg>
