<svg width="16" height="16" viewBox="0 0 16 16" fill="none" xmlns="http://www.w3.org/2000/svg">
<path d="M3 2H13C14.103 2 15 2.897 15 4V10C15 11.103 14.103 12 13 12H6.62C7.05184 11.6283 7.3986 11.1679 7.63672 10.6503C7.87484 10.1326 7.99874 9.56979 8 9C7.99874 8.43021 7.87484 7.86736 7.63672 7.34971C7.3986 6.83206 7.05184 6.37173 6.62 6H11.5C11.6326 6 11.7598 5.94732 11.8536 5.85355C11.9473 5.75979 12 5.63261 12 5.5C12 5.36739 11.9473 5.24021 11.8536 5.14645C11.7598 5.05268 11.6326 5 11.5 5H4C3.43021 5.00126 2.86736 5.12516 2.34971 5.36328C1.83206 5.6014 1.37173 5.94816 1 6.38V4C1 2.897 1.897 2 3 2ZM9.5 9H11.5C11.6326 9 11.7598 8.94732 11.8536 8.85355C11.9473 8.75979 12 8.63261 12 8.5C12 8.36739 11.9473 8.24021 11.8536 8.14645C11.7598 8.05268 11.6326 8 11.5 8H9.5C9.36739 8 9.24021 8.05268 9.14645 8.14645C9.05268 8.24021 9 8.36739 9 8.5C9 8.63261 9.05268 8.75979 9.14645 8.85355C9.24021 8.94732 9.36739 9 9.5 9ZM4 12C4.79565 12 5.55871 11.6839 6.12132 11.1213C6.68393 10.5587 7 9.79565 7 9C7 8.20435 6.68393 7.44129 6.12132 6.87868C5.55871 6.31607 4.79565 6 4 6C3.20435 6 2.44129 6.31607 1.87868 6.87868C1.31607 7.44129 1 8.20435 1 9C1 9.79565 1.31607 10.5587 1.87868 11.1213C2.44129 11.6839 3.20435 12 4 12ZM2 14.5V12.443C2.60537 12.8029 3.29575 12.9948 4 12.999C4.732 12.999 5.409 12.787 6 12.443V14.499C6.00004 14.5895 5.9755 14.6784 5.929 14.756C5.88251 14.8337 5.8158 14.8973 5.736 14.94C5.65631 14.9828 5.56652 15.0031 5.47618 14.9989C5.38585 14.9947 5.29834 14.966 5.223 14.916L4 14.1L2.777 14.915C2.70201 14.9661 2.61444 14.9958 2.5238 15.0007C2.43315 15.0056 2.3429 14.9855 2.26283 14.9428C2.18277 14.9 2.11594 14.8361 2.0696 14.7581C2.02327 14.68 1.9992 14.5908 2 14.5Z" fill="black"/>
</svg>
